<?xml version="1.0" standalone="no"?>
<!DOCTYPE svg PUBLIC "-//W3C//DTD SVG 20010904//EN"
 "http://www.w3.org/TR/2001/REC-SVG-20010904/DTD/svg10.dtd">
<svg version="1.0" xmlns="http://www.w3.org/2000/svg"
 width="642.000000pt" height="642.000000pt" viewBox="0 0 642.000000 642.000000"
 preserveAspectRatio="xMidYMid meet">
<metadata>
Created by potrace 1.11, written by Peter Selinger 2001-2013
</metadata>
<g transform="translate(0.000000,642.000000) scale(0.100000,-0.100000)"
fill="#000000" stroke="none">
<path d="M2098 6415 c-2 -2 -88 -6 -193 -9 -191 -7 -219 -8 -375 -21 -92 -7
-131 -11 -200 -19 -25 -3 -65 -8 -90 -11 -25 -3 -65 -9 -90 -15 -25 -5 -58
-11 -75 -14 -91 -13 -270 -66 -351 -103 -33 -15 -62 -26 -66 -25 -5 1 -8 -3
-8 -8 0 -6 -6 -10 -13 -10 -11 0 -127 -71 -154 -95 -150 -132 -245 -276 -311
-470 -22 -65 -44 -141 -47 -165 -1 -8 -4 -24 -8 -35 -3 -11 -9 -33 -11 -50 -3
-16 -8 -41 -11 -55 -8 -43 -15 -83 -20 -130 -3 -25 -8 -58 -10 -75 -15 -114
-25 -253 -42 -565 -9 -179 -9 -2442 0 -2650 11 -240 18 -347 31 -470 2 -19 7
-66 11 -105 3 -38 8 -77 10 -85 3 -8 7 -35 10 -60 3 -25 8 -56 11 -70 3 -14 8
-38 11 -55 2 -16 7 -37 10 -45 4 -8 8 -25 9 -38 9 -75 92 -288 151 -386 37
-63 124 -171 156 -194 10 -8 25 -22 35 -31 85 -87 351 -206 551 -246 9 -2 27
-6 41 -9 14 -3 41 -8 60 -11 19 -2 46 -6 60 -9 41 -8 102 -17 150 -21 25 -3
63 -7 85 -10 265 -32 582 -39 1790 -39 1218 -1 1494 6 1795 39 19 2 64 7 100
10 36 3 72 8 80 10 8 3 31 7 50 9 238 31 493 117 643 218 170 114 311 307 372
508 9 30 21 64 26 75 8 19 32 119 44 183 3 15 7 36 9 47 7 39 19 110 21 135 5
45 16 135 20 160 6 40 20 247 32 470 10 202 12 2481 2 2507 -6 18 -6 22 3 17
7 -4 8 -3 4 4 -4 6 -9 74 -12 149 -2 76 -6 169 -9 207 -7 114 -17 239 -21 271
-2 17 -6 55 -9 85 -4 30 -13 96 -22 145 -8 50 -16 99 -18 110 -1 11 -11 49
-20 85 -9 36 -18 72 -20 80 -16 69 -68 201 -111 277 -95 173 -215 289 -391
381 -96 50 -253 103 -393 131 -101 21 -153 29 -215 37 -16 1 -49 5 -72 8 -103
14 -131 17 -183 21 -68 5 -234 15 -360 22 -104 5 -2447 13 -2452 8z"/>
</g>
</svg>
