<svg version="1.0" xmlns="http://www.w3.org/2000/svg" viewBox="0 0 320 321" preserveAspectRatio="xMidYMid meet">
 <g fill="#09262c">
  <path d="M0 160.5 c0 -160.5 0 -160.5 160 -160.5 160 0 160 0 160 160.5 0 160.5 0 160.5 -160 160.5 -160 0 -160 0 -160 -160.5z m173 89 c15 -5.7 35.9 -16.9 44.8 -23.9 14.5 -11.5 21.9 -18.8 24 -23.6 3.8 -8.9 5.7 -24 5.6 -44 -0.1 -21.4 -2.4 -35.6 -7.1 -44.1 -6.4 -11.9 -36.2 -32.5 -62.4 -43.3 -13 -5.3 -16.9 -6 -24.2 -4 -23.8 6.5 -62.3 30.5 -72.3 45 -7.3 10.6 -11.2 40.5 -8.4 64.9 2.4 20.8 5.2 28.7 12.8 36.1 13.1 12.9 41 30 60.5 37.1 13.4 4.9 13.3 4.9 26.7 -0.2z"/>
  <path d="M146.4 231.5 c-8.9 -1.9 -16 -5.9 -23 -12.9 -10.5 -10.6 -15.4 -24.5 -14 -40.7 0.8 -10 1.2 -10.9 4.6 -10.9 2.9 0 2.9 0 0 -6.4 -5.6 -12.2 -6.4 -28.4 -2 -41.2 7.4 -21.3 27.8 -34 51.9 -32.1 29.1 2.3 48.2 25.1 45.7 54.7 -0.8 10.5 -1.4 12 -4.2 12 -2.9 0 -2.9 0.1 -0.3 5.1 6.4 12.7 6.4 32.3 -0.2 46.7 -3.4 7.5 -12.8 17.3 -20.6 21.5 -9.9 5.3 -25.2 7 -37.9 4.2z m23.3 -20.5 c9.4 -4.2 16 -11.7 19 -21.9 1.4 -5 1.4 -5.9 -0.2 -11.7 -1 -3.6 -2 -6.6 -2.4 -6.8 -0.3 -0.2 -0.4 2 -0.3 4.9 0.3 4.8 0.1 5.5 -2.2 7 -10.7 7.1 -34.7 7 -48.2 0 -6.4 -3.4 -6.4 -3.4 -6.4 -0.6 0 8.4 6.2 19.9 13.8 25.5 9 6.5 17.6 7.7 26.9 3.6z m0.4 -45.1 c3.1 -1.4 6.2 -2 8.5 -1.7 3.7 0.4 3.7 0.4 0.3 -2.5 -9.1 -7.8 -20.2 -9.9 -29.4 -5.7 -2.8 1.2 -6.5 2.5 -8.3 2.9 -3.3 0.6 -3.3 0.6 1.6 3.8 9.9 6.4 17.6 7.3 27.3 3.2z m-34.4 -28.7 c13.3 -7.3 37.6 -6.4 51.1 2 3.5 2.2 3.5 2.2 2.8 -2.3 -2.2 -13.8 -12.5 -24.9 -26.1 -27.9 -9.1 -2 -21.7 3.9 -28.2 13.4 -4.3 6.3 -6.7 14.3 -5.7 19.3 0.8 3.8 0.8 3.8 1.4 0.8 0.4 -2.2 1.6 -3.6 4.7 -5.3z"/>
 </g>
 <g fill="#3aad2a">
  <path d="M153.5 256.1 c-25.3 -6.3 -68 -33.1 -76.9 -48.4 -6.5 -11.1 -9.4 -45.8 -6.1 -70.9 3.6 -26.6 6.1 -30.7 29.5 -47.4 23.7 -17 50.9 -28.5 63.7 -27 21.4 2.5 71.1 32.8 79.6 48.5 5 9 7 22.5 7.1 47.1 0.1 17 -0.3 23.7 -1.8 32 -2.6 14.5 -4.5 18.3 -12.6 25.7 -14.9 13.7 -23.1 19.4 -40 27.7 -24.3 11.9 -33.8 14.8 -42.5 12.7z m15.8 -27.6 c18.8 -4 33.6 -19.7 36.8 -39.3 5.2 -31.4 -24.5 -59.4 -55.9 -52.8 -4 0.8 -9.2 2.6 -11.5 3.9 -4.9 2.7 -5.1 4.6 -1.2 11.3 2.5 4.3 2.5 4.3 8.3 1.6 4.7 -2.2 7.1 -2.6 13.7 -2.6 15.6 0.1 27.7 9 32 23.8 7.2 24.7 -16.4 48.3 -41.1 41.1 -13.7 -4 -24.4 -17.7 -24.4 -31.2 0 -2.7 -1 -4.4 -5.6 -9 -6.4 -6.3 -6.8 -6.2 -7.8 2.8 -1.5 13.1 3.8 27.4 13.8 37.5 7 7 14.1 11 23 12.9 8 1.8 11.7 1.8 19.9 0z m4.4 -46 c7.1 -2.1 9.8 -4.4 8.9 -7.8 -0.3 -1.4 -1.6 -3.8 -2.9 -5.2 -2.2 -2.6 -2.2 -2.6 -7.1 -0.4 -14.2 6.3 -32.4 1.1 -40.4 -11.4 -1.8 -2.9 -4 -7.6 -4.8 -10.6 -4.5 -15 3.6 -32 18.5 -39 7.9 -3.7 19.1 -3.7 27.2 0.1 10.4 4.8 18 15 19.6 26.3 0.5 4.2 1.4 5.6 6.4 10.5 6.5 6.4 6.3 6.5 7.5 -4 0.7 -6.8 -1.5 -17.9 -4.9 -24.7 -9.4 -18.6 -31.3 -29.2 -51.5 -24.9 -20.3 4.3 -35 20.5 -37.6 41.8 -1.7 13.1 4.3 29 14.4 38 3.3 3 8.2 6.7 11 8.2 10.1 5.5 23.7 6.7 35.7 3.1z"/>
 </g>
</svg>
